ffmpeg started on 2025-06-07 at 15:52:42
Report written to "D:\Convert\FFMetrics\reports\ssim_report-6.txt"
Log level: 32
Command line:
ffmpeg -hide_banner -nostdin -i "G:\\\xc0\xed\xe8\xec\xe5\\\xce\xed\xe3\xee\xe8\xed\xe3\xe8\\!_36_\xce\xf1\xe5\xed\xfc_2024\\DreamCast\\\xd1\xee\xe1\xeb\xe0\xe7\xed 2,5-\xec\xe5\xf0\xed\xee\xe3\xee \xe8\xe7\xec\xe5\xf0\xe5\xed\xe8\xff\\[DC] 2-5 Jigen no Ririsa - 24_Telegram_HEVC.mkv" -i "G:\\\xc0\xed\xe8\xec\xe5\\\xce\xed\xe3\xee\xe8\xed\xe3\xe8\\!_36_\xce\xf1\xe5\xed\xfc_2024\\DreamCast\\\xd1\xee\xe1\xeb\xe0\xe7\xed 2,5-\xec\xe5\xf0\xed\xee\xe3\xee \xe8\xe7\xec\xe5\xf0\xe5\xed\xe8\xff\\[DC] 2-5 Jigen no Ririsa - 24_Telegram.mp4" -lavfi "[0:v]settb=AVTB,setpts=PTS-STARTPTS,format=pix_fmts=yuv420p10,fps=24/1,scale=1920:1080:flags=bicubic[main];[1:v]settb=AVTB,setpts=PTS-STARTPTS,format=pix_fmts=yuv420p,fps=24/1,scale=1920:1080:flags=bicubic[ref];[main][ref]ssim=eof_action=endall:stats_file='D\\:/Convert/FFMetrics/logs/ssim_logfile-6.txt'" -f null -
Input #0, matroska,webm, from 'G:\Аниме\Онгоинги\!_36_Осень_2024\DreamCast\Соблазн 2,5-мерного измерения\[DC] 2-5 Jigen no Ririsa - 24_Telegram_HEVC.mkv':
  Metadata:
    COMPATIBLE_BRANDS: isomiso2avc1mp41
    MAJOR_BRAND     : isom
    MINOR_VERSION   : 512
    ENCODER         : Lavf61.7.100
  Duration: 00:24:09.13, start: -0.021000, bitrate: 1028 kb/s
  Stream #0:0: Video: hevc (Main 10), yuv420p10le(tv, bt709, progressive), 1920x1080 [SAR 1:1 DAR 16:9], 24 fps, 24 tbr, 1k tbn (default)
      Metadata:
        HANDLER_NAME    : VideoHandler
        VENDOR_ID       : [0][0][0][0]
        ENCODER         : Lavc61.19.100 libx265
        BPS             : 830995
        DURATION        : 00:24:08.999666666
        NUMBER_OF_FRAMES: 34776
        NUMBER_OF_BYTES : 150513981
        _STATISTICS_WRITING_APP: mkvpropedit v66.0.0 ('Josie') 64-bit
        _STATISTICS_WRITING_DATE_UTC: 2025-06-04 14:02:30
        _STATISTICS_TAGS: BPS DURATION NUMBER_OF_FRAMES NUMBER_OF_BYTES
  Stream #0:1: Audio: aac (LC), 48000 Hz, stereo, fltp (default)
      Metadata:
        HANDLER_NAME    : SoundHandler
        VENDOR_ID       : [0][0][0][0]
        ENCODER         : Lavc61.19.100 aac
        BPS             : 193278
        DURATION        : 00:24:09.130000000
        NUMBER_OF_FRAMES: 67929
        NUMBER_OF_BYTES : 35010695
        _STATISTICS_WRITING_APP: mkvpropedit v66.0.0 ('Josie') 64-bit
        _STATISTICS_WRITING_DATE_UTC: 2025-06-04 14:02:30
        _STATISTICS_TAGS: BPS DURATION NUMBER_OF_FRAMES NUMBER_OF_BYTES
Input #1, mov,mp4,m4a,3gp,3g2,mj2, from 'G:\Аниме\Онгоинги\!_36_Осень_2024\DreamCast\Соблазн 2,5-мерного измерения\[DC] 2-5 Jigen no Ririsa - 24_Telegram.mp4':
  Metadata:
    major_brand     : isom
    minor_version   : 512
    compatible_brands: isomiso2avc1mp41
    encoder         : Lavf61.1.100
  Duration: 00:24:09.07, start: 0.000000, bitrate: 3863 kb/s
  Stream #1:0[0x1](und): Video: h264 (High) (avc1 / 0x31637661), yuv420p(tv, bt709, progressive), 1920x1080 [SAR 1:1 DAR 16:9], 3716 kb/s, 24 fps, 24 tbr, 12288 tbn (default)
      Metadata:
        handler_name    : VideoHandler
        vendor_id       : [0][0][0][0]
        encoder         : Lavc61.3.100 h264_qsv
  Stream #1:1[0x2](und): Audio: aac (HE-AACv2) (mp4a / 0x6134706D), 48000 Hz, stereo, fltp, 144 kb/s (default)
      Metadata:
        handler_name    : SoundHandler
        vendor_id       : [0][0][0][0]
Stream mapping:
  Stream #0:0 (hevc) -> settb:default
  Stream #1:0 (h264) -> settb:default
  ssim:default -> Stream #0:0 (wrapped_avframe)
  Stream #0:1 -> #0:1 (aac (native) -> pcm_s16le (native))
Output #0, null, to 'pipe:':
  Metadata:
    COMPATIBLE_BRANDS: isomiso2avc1mp41
    MAJOR_BRAND     : isom
    MINOR_VERSION   : 512
    encoder         : Lavf61.7.100
  Stream #0:0: Video: wrapped_avframe, yuv420p10le(tv, bt709, progressive), 1920x1080 [SAR 1:1 DAR 16:9], q=2-31, 200 kb/s, 24 fps, 24 tbn
      Metadata:
        encoder         : Lavc61.19.100 wrapped_avframe
  Stream #0:1: Audio: pcm_s16le, 48000 Hz, stereo, s16, 1536 kb/s (default)
      Metadata:
        HANDLER_NAME    : SoundHandler
        VENDOR_ID       : [0][0][0][0]
        _STATISTICS_TAGS: BPS DURATION NUMBER_OF_FRAMES NUMBER_OF_BYTES
        BPS             : 193278
        DURATION        : 00:24:09.130000000
        NUMBER_OF_FRAMES: 67929
        NUMBER_OF_BYTES : 35010695
        _STATISTICS_WRITING_APP: mkvpropedit v66.0.0 ('Josie') 64-bit
        _STATISTICS_WRITING_DATE_UTC: 2025-06-04 14:02:30
        encoder         : Lavc61.19.100 pcm_s16le
frame=  188 fps=0.0 q=-0.0 size=N/A time=00:00:07.83 bitrate=N/A speed=14.9x    frame=  430 fps=415 q=-0.0 size=N/A time=00:00:17.91 bitrate=N/A speed=17.3x    frame=  674 fps=436 q=-0.0 size=N/A time=00:00:28.08 bitrate=N/A speed=18.2x    frame=  883 fps=426 q=-0.0 size=N/A time=00:00:36.79 bitrate=N/A speed=17.8x    frame= 1115 fps=432 q=-0.0 size=N/A time=00:00:46.45 bitrate=N/A speed=  18x    frame= 1367 fps=440 q=-0.0 size=N/A time=00:00:56.95 bitrate=N/A speed=18.3x    frame= 1599 fps=442 q=-0.0 size=N/A time=00:01:06.62 bitrate=N/A speed=18.4x    frame= 1861 fps=451 q=-0.0 size=N/A time=00:01:17.54 bitrate=N/A speed=18.8x    frame= 2115 fps=455 q=-0.0 size=N/A time=00:01:28.12 bitrate=N/A speed=  19x    frame= 2338 fps=453 q=-0.0 size=N/A time=00:01:37.41 bitrate=N/A speed=18.9x    frame= 2599 fps=457 q=-0.0 size=N/A time=00:01:48.29 bitrate=N/A speed=19.1x    frame= 2860 fps=462 q=-0.0 size=N/A time=00:01:59.16 bitrate=N/A speed=19.2x    frame= 3115 fps=465 q=-0.0 size=N/A time=00:02:09.79 bitrate=N/A speed=19.4x    frame= 3374 fps=467 q=-0.0 size=N/A time=00:02:20.58 bitrate=N/A speed=19.4x    frame= 3614 fps=467 q=-0.0 size=N/A time=00:02:30.58 bitrate=N/A speed=19.5x    frame= 3898 fps=472 q=-0.0 size=N/A time=00:02:42.41 bitrate=N/A speed=19.7x    frame= 4160 fps=474 q=-0.0 size=N/A time=00:02:53.33 bitrate=N/A speed=19.7x    frame= 4410 fps=475 q=-0.0 size=N/A time=00:03:03.75 bitrate=N/A speed=19.8x    frame= 4656 fps=475 q=-0.0 size=N/A time=00:03:14.00 bitrate=N/A speed=19.8x    frame= 4913 fps=476 q=-0.0 size=N/A time=00:03:24.70 bitrate=N/A speed=19.8x    frame= 5146 fps=475 q=-0.0 size=N/A time=00:03:34.41 bitrate=N/A speed=19.8x    frame= 5391 fps=475 q=-0.0 size=N/A time=00:03:44.62 bitrate=N/A speed=19.8x    frame= 5635 fps=475 q=-0.0 size=N/A time=00:03:54.79 bitrate=N/A speed=19.8x    frame= 5860 fps=473 q=-0.0 size=N/A time=00:04:04.16 bitrate=N/A speed=19.7x    frame= 6119 fps=474 q=-0.0 size=N/A time=00:04:14.95 bitrate=N/A speed=19.7x    frame= 6346 fps=473 q=-0.0 size=N/A time=00:04:24.41 bitrate=N/A speed=19.7x    frame= 6491 fps=466 q=-0.0 size=N/A time=00:04:30.45 bitrate=N/A speed=19.4x    frame= 6673 fps=461 q=-0.0 size=N/A time=00:04:38.04 bitrate=N/A speed=19.2x    frame= 6909 fps=461 q=-0.0 size=N/A time=00:04:47.87 bitrate=N/A speed=19.2x    frame= 7139 fps=461 q=-0.0 size=N/A time=00:04:57.45 bitrate=N/A speed=19.2x    frame= 7385 fps=461 q=-0.0 size=N/A time=00:05:07.70 bitrate=N/A speed=19.2x    frame= 7630 fps=462 q=-0.0 size=N/A time=00:05:17.91 bitrate=N/A speed=19.2x    frame= 7911 fps=464 q=-0.0 size=N/A time=00:05:29.62 bitrate=N/A speed=19.3x    frame= 8123 fps=463 q=-0.0 size=N/A time=00:05:38.45 bitrate=N/A speed=19.3x    frame= 8367 fps=463 q=-0.0 size=N/A time=00:05:48.62 bitrate=N/A speed=19.3x    frame= 8629 fps=464 q=-0.0 size=N/A time=00:05:59.54 bitrate=N/A speed=19.3x    frame= 8863 fps=464 q=-0.0 size=N/A time=00:06:09.29 bitrate=N/A speed=19.3x    frame= 9075 fps=463 q=-0.0 size=N/A time=00:06:18.12 bitrate=N/A speed=19.3x    frame= 9324 fps=463 q=-0.0 size=N/A time=00:06:28.50 bitrate=N/A speed=19.3x    frame= 9545 fps=462 q=-0.0 size=N/A time=00:06:37.70 bitrate=N/A speed=19.3x    frame= 9812 fps=464 q=-0.0 size=N/A time=00:06:48.83 bitrate=N/A speed=19.3x    frame=10065 fps=464 q=-0.0 size=N/A time=00:06:59.37 bitrate=N/A speed=19.4x    frame=10312 fps=465 q=-0.0 size=N/A time=00:07:09.66 bitrate=N/A speed=19.4x    frame=10568 fps=465 q=-0.0 size=N/A time=00:07:20.33 bitrate=N/A speed=19.4x    frame=10830 fps=466 q=-0.0 size=N/A time=00:07:31.25 bitrate=N/A speed=19.4x    frame=11103 fps=468 q=-0.0 size=N/A time=00:07:42.62 bitrate=N/A speed=19.5x    frame=11355 fps=468 q=-0.0 size=N/A time=00:07:53.12 bitrate=N/A speed=19.5x    frame=11608 fps=469 q=-0.0 size=N/A time=00:08:03.66 bitrate=N/A speed=19.5x    frame=11855 fps=469 q=-0.0 size=N/A time=00:08:13.95 bitrate=N/A speed=19.5x    frame=12107 fps=469 q=-0.0 size=N/A time=00:08:24.45 bitrate=N/A speed=19.5x    frame=12347 fps=469 q=-0.0 size=N/A time=00:08:34.45 bitrate=N/A speed=19.5x    frame=12612 fps=470 q=-0.0 size=N/A time=00:08:45.50 bitrate=N/A speed=19.6x    frame=12856 fps=470 q=-0.0 size=N/A time=00:08:55.66 bitrate=N/A speed=19.6x    frame=13099 fps=470 q=-0.0 size=N/A time=00:09:05.79 bitrate=N/A speed=19.6x    frame=13362 fps=471 q=-0.0 size=N/A time=00:09:16.75 bitrate=N/A speed=19.6x    frame=13625 fps=472 q=-0.0 size=N/A time=00:09:27.70 bitrate=N/A speed=19.7x    frame=13905 fps=473 q=-0.0 size=N/A time=00:09:39.37 bitrate=N/A speed=19.7x    frame=14164 fps=473 q=-0.0 size=N/A time=00:09:50.16 bitrate=N/A speed=19.7x    frame=14398 fps=473 q=-0.0 size=N/A time=00:09:59.91 bitrate=N/A speed=19.7x    frame=14640 fps=473 q=-0.0 size=N/A time=00:10:10.00 bitrate=N/A speed=19.7x    frame=14886 fps=473 q=-0.0 size=N/A time=00:10:20.25 bitrate=N/A speed=19.7x    frame=15091 fps=472 q=-0.0 size=N/A time=00:10:28.79 bitrate=N/A speed=19.7x    frame=15348 fps=472 q=-0.0 size=N/A time=00:10:39.50 bitrate=N/A speed=19.7x    frame=15603 fps=472 q=-0.0 size=N/A time=00:10:50.12 bitrate=N/A speed=19.7x    frame=15844 fps=472 q=-0.0 size=N/A time=00:11:00.16 bitrate=N/A speed=19.7x    frame=16102 fps=473 q=-0.0 size=N/A time=00:11:10.91 bitrate=N/A speed=19.7x    frame=16360 fps=473 q=-0.0 size=N/A time=00:11:21.66 bitrate=N/A speed=19.7x    frame=16611 fps=473 q=-0.0 size=N/A time=00:11:32.12 bitrate=N/A speed=19.7x    frame=16856 fps=474 q=-0.0 size=N/A time=00:11:42.33 bitrate=N/A speed=19.7x    frame=17118 fps=474 q=-0.0 size=N/A time=00:11:53.25 bitrate=N/A speed=19.7x    frame=17375 fps=474 q=-0.0 size=N/A time=00:12:03.95 bitrate=N/A speed=19.8x    frame=17610 fps=474 q=-0.0 size=N/A time=00:12:13.75 bitrate=N/A speed=19.8x    frame=17827 fps=473 q=-0.0 size=N/A time=00:12:22.79 bitrate=N/A speed=19.7x    frame=18096 fps=474 q=-0.0 size=N/A time=00:12:34.00 bitrate=N/A speed=19.7x    frame=18374 fps=475 q=-0.0 size=N/A time=00:12:45.58 bitrate=N/A speed=19.8x    frame=18641 fps=475 q=-0.0 size=N/A time=00:12:56.70 bitrate=N/A speed=19.8x    frame=18890 fps=476 q=-0.0 size=N/A time=00:13:07.08 bitrate=N/A speed=19.8x    frame=19103 fps=475 q=-0.0 size=N/A time=00:13:15.95 bitrate=N/A speed=19.8x    frame=19356 fps=475 q=-0.0 size=N/A time=00:13:26.50 bitrate=N/A speed=19.8x    frame=19608 fps=475 q=-0.0 size=N/A time=00:13:37.00 bitrate=N/A speed=19.8x    frame=19860 fps=475 q=-0.0 size=N/A time=00:13:47.50 bitrate=N/A speed=19.8x    frame=20122 fps=476 q=-0.0 size=N/A time=00:13:58.41 bitrate=N/A speed=19.8x    frame=20372 fps=476 q=-0.0 size=N/A time=00:14:08.83 bitrate=N/A speed=19.8x    frame=20628 fps=476 q=-0.0 size=N/A time=00:14:19.50 bitrate=N/A speed=19.8x    frame=20880 fps=476 q=-0.0 size=N/A time=00:14:30.00 bitrate=N/A speed=19.8x    frame=21118 fps=476 q=-0.0 size=N/A time=00:14:39.91 bitrate=N/A speed=19.8x    frame=21353 fps=476 q=-0.0 size=N/A time=00:14:49.70 bitrate=N/A speed=19.8x    frame=21625 fps=476 q=-0.0 size=N/A time=00:15:01.04 bitrate=N/A speed=19.8x    frame=21886 fps=477 q=-0.0 size=N/A time=00:15:11.91 bitrate=N/A speed=19.9x    frame=22156 fps=477 q=-0.0 size=N/A time=00:15:23.16 bitrate=N/A speed=19.9x    frame=22391 fps=477 q=-0.0 size=N/A time=00:15:32.95 bitrate=N/A speed=19.9x    frame=22656 fps=477 q=-0.0 size=N/A time=00:15:44.00 bitrate=N/A speed=19.9x    frame=22907 fps=477 q=-0.0 size=N/A time=00:15:54.45 bitrate=N/A speed=19.9x    frame=23175 fps=478 q=-0.0 size=N/A time=00:16:05.62 bitrate=N/A speed=19.9x    frame=23432 fps=478 q=-0.0 size=N/A time=00:16:16.33 bitrate=N/A speed=19.9x    frame=23688 fps=478 q=-0.0 size=N/A time=00:16:27.00 bitrate=N/A speed=19.9x    frame=23946 fps=478 q=-0.0 size=N/A time=00:16:37.75 bitrate=N/A speed=19.9x    frame=24203 fps=478 q=-0.0 size=N/A time=00:16:48.45 bitrate=N/A speed=19.9x    frame=24450 fps=478 q=-0.0 size=N/A time=00:16:58.75 bitrate=N/A speed=19.9x    frame=24676 fps=478 q=-0.0 size=N/A time=00:17:08.16 bitrate=N/A speed=19.9x    frame=24925 fps=478 q=-0.0 size=N/A time=00:17:18.54 bitrate=N/A speed=19.9x    frame=25161 fps=478 q=-0.0 size=N/A time=00:17:28.37 bitrate=N/A speed=19.9x    frame=25407 fps=478 q=-0.0 size=N/A time=00:17:38.62 bitrate=N/A speed=19.9x    frame=25671 fps=478 q=-0.0 size=N/A time=00:17:49.62 bitrate=N/A speed=19.9x    frame=25911 fps=478 q=-0.0 size=N/A time=00:17:59.62 bitrate=N/A speed=19.9x    frame=26143 fps=478 q=-0.0 size=N/A time=00:18:09.29 bitrate=N/A speed=19.9x    frame=26397 fps=478 q=-0.0 size=N/A time=00:18:19.87 bitrate=N/A speed=19.9x    frame=26648 fps=478 q=-0.0 size=N/A time=00:18:30.33 bitrate=N/A speed=19.9x    frame=26891 fps=478 q=-0.0 size=N/A time=00:18:40.45 bitrate=N/A speed=19.9x    frame=27102 fps=477 q=-0.0 size=N/A time=00:18:49.25 bitrate=N/A speed=19.9x    frame=27339 fps=477 q=-0.0 size=N/A time=00:18:59.12 bitrate=N/A speed=19.9x    frame=27564 fps=477 q=-0.0 size=N/A time=00:19:08.50 bitrate=N/A speed=19.9x    frame=27806 fps=477 q=-0.0 size=N/A time=00:19:18.58 bitrate=N/A speed=19.9x    frame=28053 fps=477 q=-0.0 size=N/A time=00:19:28.87 bitrate=N/A speed=19.9x    frame=28287 fps=477 q=-0.0 size=N/A time=00:19:38.62 bitrate=N/A speed=19.9x    frame=28534 fps=477 q=-0.0 size=N/A time=00:19:48.91 bitrate=N/A speed=19.9x    frame=28750 fps=476 q=-0.0 size=N/A time=00:19:57.91 bitrate=N/A speed=19.8x    frame=28988 fps=476 q=-0.0 size=N/A time=00:20:07.83 bitrate=N/A speed=19.8x    frame=29200 fps=475 q=-0.0 size=N/A time=00:20:16.66 bitrate=N/A speed=19.8x    frame=29435 fps=475 q=-0.0 size=N/A time=00:20:26.45 bitrate=N/A speed=19.8x    frame=29679 fps=475 q=-0.0 size=N/A time=00:20:36.62 bitrate=N/A speed=19.8x    frame=29927 fps=475 q=-0.0 size=N/A time=00:20:46.95 bitrate=N/A speed=19.8x    frame=30166 fps=475 q=-0.0 size=N/A time=00:20:56.91 bitrate=N/A speed=19.8x    frame=30413 fps=475 q=-0.0 size=N/A time=00:21:07.20 bitrate=N/A speed=19.8x    frame=30652 fps=475 q=-0.0 size=N/A time=00:21:17.16 bitrate=N/A speed=19.8x    frame=30906 fps=475 q=-0.0 size=N/A time=00:21:27.75 bitrate=N/A speed=19.8x    frame=31165 fps=476 q=-0.0 size=N/A time=00:21:38.54 bitrate=N/A speed=19.8x    frame=31436 fps=476 q=-0.0 size=N/A time=00:21:49.83 bitrate=N/A speed=19.8x    frame=31675 fps=476 q=-0.0 size=N/A time=00:21:59.79 bitrate=N/A speed=19.8x    frame=31919 fps=476 q=-0.0 size=N/A time=00:22:09.95 bitrate=N/A speed=19.8x    frame=32177 fps=476 q=-0.0 size=N/A time=00:22:20.70 bitrate=N/A speed=19.8x    frame=32436 fps=476 q=-0.0 size=N/A time=00:22:31.50 bitrate=N/A speed=19.8x    frame=32683 fps=476 q=-0.0 size=N/A time=00:22:41.79 bitrate=N/A speed=19.8x    frame=32902 fps=476 q=-0.0 size=N/A time=00:22:50.91 bitrate=N/A speed=19.8x    frame=33119 fps=475 q=-0.0 size=N/A time=00:22:59.95 bitrate=N/A speed=19.8x    frame=33333 fps=475 q=-0.0 size=N/A time=00:23:08.87 bitrate=N/A speed=19.8x    frame=33557 fps=475 q=-0.0 size=N/A time=00:23:18.20 bitrate=N/A speed=19.8x    frame=33779 fps=474 q=-0.0 size=N/A time=00:23:27.45 bitrate=N/A speed=19.8x    frame=34019 fps=474 q=-0.0 size=N/A time=00:23:37.45 bitrate=N/A speed=19.8x    frame=34258 fps=474 q=-0.0 size=N/A time=00:23:47.41 bitrate=N/A speed=19.8x    frame=34484 fps=474 q=-0.0 size=N/A time=00:23:56.83 bitrate=N/A speed=19.7x    frame=34651 fps=473 q=-0.0 size=N/A time=00:24:03.79 bitrate=N/A speed=19.7x    [Parsed_ssim_10 @ 000001ec2641a5c0] SSIM Y:0.993689 (21.999235) U:0.993938 (22.173924) V:0.993854 (22.114077) All:0.993758 (22.046922)
[out#0/null @ 000001ec193a4a40] video:14943KiB audio:271716KiB subtitle:0KiB other streams:0KiB global headers:0KiB muxing overhead: unknown
frame=34776 fps=473 q=-0.0 Lsize=N/A time=00:24:09.00 bitrate=N/A speed=19.7x    
